<?xml version="1.0" encoding="UTF-8" standalone="no"?>
<!-- Generator: Adobe Illustrator 16.0.0, SVG Export Plug-In . SVG Version: 6.00 Build 0)  -->

<svg
   xmlns:dc="http://purl.org/dc/elements/1.1/"
   xmlns:cc="http://creativecommons.org/ns#"
   xmlns:rdf="http://www.w3.org/1999/02/22-rdf-syntax-ns#"
   xmlns:svg="http://www.w3.org/2000/svg"
   xmlns="http://www.w3.org/2000/svg"
   xmlns:sodipodi="http://sodipodi.sourceforge.net/DTD/sodipodi-0.dtd"
   xmlns:inkscape="http://www.inkscape.org/namespaces/inkscape"
   version="1.1"
   x="0px"
   y="0px"
   width="497.29016"
   height="103.29016"
   viewBox="0 0 497.29016 103.29016"
   enable-background="new 0 0 1024 768"
   xml:space="preserve"
   id="svg2"
   inkscape:version="0.48.5 r10040"
   sodipodi:docname="logo.svg"><metadata
     id="metadata350"><rdf:RDF><cc:Work
         rdf:about=""><dc:format>image/svg+xml</dc:format><dc:type
           rdf:resource="http://purl.org/dc/dcmitype/StillImage" /><dc:title></dc:title></cc:Work></rdf:RDF></metadata><defs
     id="defs348" /><sodipodi:namedview
     pagecolor="#ffffff"
     bordercolor="#666666"
     borderopacity="1"
     objecttolerance="10"
     gridtolerance="10"
     guidetolerance="10"
     inkscape:pageopacity="0"
     inkscape:pageshadow="2"
     inkscape:window-width="640"
     inkscape:window-height="480"
     id="namedview346"
     showgrid="false"
     fit-margin-top="0"
     fit-margin-left="0"
     fit-margin-right="0"
     fit-margin-bottom="0"
     inkscape:zoom="0.86915208"
     inkscape:cx="146.66275"
     inkscape:cy="85.914843"
     inkscape:window-x="0"
     inkscape:window-y="0"
     inkscape:window-maximized="0"
     inkscape:current-layer="svg2" /><g
     id="play"
     transform="translate(-212.70984,-158.70984)"><g
       display="none"
       id="g5"
       style="display:none"><rect
         x="421"
         y="338"
         display="inline"
         width="179"
         height="92"
         id="rect7"
         style="fill:#1fff8c;display:inline" /><polygon
         display="inline"
         points="453,375 472.3,386.3 453,397.7 "
         id="polygon9"
         style="fill:#ffffff;display:inline" /><text
         transform="translate(483.1733,397.6665)"
         display="inline"
         font-size="30.9625"
         id="text11"
         style="font-size:30.96249962px;fill:#ffffff;display:inline;font-family:OpenSans-Bold">PLAY</text>
</g></g><g
     id="Layer_4"
     transform="translate(-212.70984,-158.70984)" /><g
     id="g61"
     transform="matrix(0.71236334,0,0,0.71236334,-133.92431,-71.236334)"><rect
       style="fill:#5c2849"
       id="rect63"
       height="9"
       width="9"
       y="136"
       x="323" /><rect
       style="fill:#9b2748"
       id="rect65"
       height="9"
       width="9"
       y="127"
       x="323" /><rect
       style="fill:#9b2748"
       id="rect67"
       height="9"
       width="9"
       y="118"
       x="323" /><rect
       style="fill:#9b2748"
       id="rect69"
       height="9"
       width="9"
       y="109"
       x="323" /><rect
       style="fill:#c93a56"
       id="rect71"
       height="9"
       width="9"
       y="100"
       x="323" /><rect
       style="fill:#5c2849"
       id="rect73"
       height="9"
       width="9"
       y="145"
       x="314" /><rect
       style="fill:#de445d"
       id="rect75"
       height="9"
       width="9"
       y="136"
       x="314" /><rect
       style="fill:#de445d"
       id="rect77"
       height="9"
       width="9"
       y="127"
       x="314" /><rect
       style="fill:#de445d"
       id="rect79"
       height="9"
       width="9"
       y="118"
       x="314" /><rect
       style="fill:#ec4863"
       id="rect81"
       height="9"
       width="9"
       y="109"
       x="314" /><rect
       style="fill:#ec4863"
       id="rect83"
       height="9"
       width="9"
       y="100"
       x="314" /><rect
       style="fill:#5c2849"
       id="rect85"
       height="9"
       width="9"
       y="154"
       x="305" /><rect
       style="fill:#ec4863"
       id="rect87"
       height="9"
       width="9"
       y="145"
       x="305" /><rect
       style="fill:#c93a56"
       id="rect89"
       height="9"
       width="9"
       y="136"
       x="305" /><rect
       style="fill:#c93a56"
       id="rect91"
       height="9"
       width="9"
       y="127"
       x="305" /><rect
       style="fill:#ec4863"
       id="rect93"
       height="9"
       width="9"
       y="118"
       x="305" /><rect
       style="fill:#ec4863"
       id="rect95"
       height="9"
       width="9"
       y="109"
       x="305" /><rect
       style="fill:#ec4863"
       id="rect97"
       height="9"
       width="9"
       y="100"
       x="305" /><rect
       style="fill:#9b2748"
       id="rect99"
       height="9"
       width="9"
       y="163"
       x="296" /><rect
       style="fill:#de445d"
       id="rect101"
       height="9"
       width="9"
       y="154"
       x="296" /><rect
       style="fill:#c93a56"
       id="rect103"
       height="9"
       width="9"
       y="145"
       x="296" /><rect
       style="fill:#88d3e5"
       id="rect105"
       height="9"
       width="9"
       y="136"
       x="296" /><rect
       style="fill:#ace8f9"
       id="rect107"
       height="9"
       width="9"
       y="127"
       x="296" /><rect
       style="fill:#c93a56"
       id="rect109"
       height="9"
       width="9"
       y="118"
       x="296" /><rect
       style="fill:#ec4863"
       id="rect111"
       height="9"
       width="9"
       y="109"
       x="296" /><rect
       style="fill:#ec4863"
       id="rect113"
       height="9"
       width="9"
       y="100"
       x="296" /><rect
       style="fill:#5c2849"
       id="rect115"
       height="9"
       width="9"
       y="199"
       x="287" /><rect
       style="fill:#89223b"
       id="rect117"
       height="9"
       width="9"
       y="190"
       x="287" /><rect
       style="fill:#89223b"
       id="rect119"
       height="9"
       width="9"
       y="181"
       x="287" /><rect
       style="fill:#89223b"
       id="rect121"
       height="9"
       width="9"
       y="172"
       x="287" /><rect
       style="fill:#c93a56"
       id="rect123"
       height="9"
       width="9"
       y="163"
       x="287" /><rect
       style="fill:#ec4863"
       id="rect125"
       height="9"
       width="9"
       y="154"
       x="287" /><rect
       style="fill:#c93a56"
       id="rect127"
       height="9"
       width="9"
       y="145"
       x="287" /><rect
       style="fill:#ace8f9"
       id="rect129"
       height="9"
       width="9"
       y="136"
       x="287" /><rect
       style="fill:#ace8f9"
       id="rect131"
       height="9"
       width="9"
       y="127"
       x="287" /><rect
       style="fill:#c93a56"
       id="rect133"
       height="9"
       width="9"
       y="118"
       x="287" /><rect
       style="fill:#ec4863"
       id="rect135"
       height="9"
       width="9"
       y="109"
       x="287" /><rect
       style="fill:#de445d"
       id="rect137"
       height="9"
       width="9"
       y="100"
       x="287" /><rect
       style="fill:#5c2849"
       id="rect139"
       height="9"
       width="9"
       y="208"
       x="278" /><rect
       style="fill:#a5304c"
       id="rect141"
       height="9"
       width="9"
       y="199"
       x="278" /><rect
       style="fill:#c93a56"
       id="rect143"
       height="9"
       width="9"
       y="190"
       x="278" /><rect
       style="fill:#c93a56"
       id="rect145"
       height="9"
       width="9"
       y="181"
       x="278" /><rect
       style="fill:#c93a56"
       id="rect147"
       height="9"
       width="9"
       y="172"
       x="278" /><rect
       style="fill:#de445d"
       id="rect149"
       height="9"
       width="9"
       y="163"
       x="278" /><rect
       style="fill:#ec4863"
       id="rect151"
       height="9"
       width="9"
       y="154"
       x="278" /><rect
       style="fill:#ec4863"
       id="rect153"
       height="9"
       width="9"
       y="145"
       x="278" /><rect
       style="fill:#c93a56"
       id="rect155"
       height="9"
       width="9"
       y="136"
       x="278" /><rect
       style="fill:#c93a56"
       id="rect157"
       height="9"
       width="9"
       y="127"
       x="278" /><rect
       style="fill:#ec4863"
       id="rect159"
       height="9"
       width="9"
       y="118"
       x="278" /><rect
       style="fill:#de445d"
       id="rect161"
       height="9"
       width="9"
       y="109"
       x="278" /><rect
       style="fill:#5c2849"
       id="rect163"
       height="9"
       width="9"
       y="217"
       x="269" /><rect
       style="fill:#a5304c"
       id="rect165"
       height="9"
       width="9"
       y="208"
       x="269" /><rect
       style="fill:#c93a56"
       id="rect167"
       height="9"
       width="9"
       y="199"
       x="269" /><rect
       style="fill:#ec4863"
       id="rect169"
       height="9"
       width="9"
       y="190"
       x="269" /><rect
       style="fill:#ec4863"
       id="rect171"
       height="9"
       width="9"
       y="181"
       x="269" /><rect
       style="fill:#ec4863"
       id="rect173"
       height="9"
       width="9"
       y="172"
       x="269" /><rect
       style="fill:#ec4863"
       id="rect175"
       height="9"
       width="9"
       y="163"
       x="269" /><rect
       style="fill:#ec4863"
       id="rect177"
       height="9"
       width="9"
       y="154"
       x="269" /><rect
       style="fill:#ec4863"
       id="rect179"
       height="9"
       width="9"
       y="145"
       x="269" /><rect
       style="fill:#ec4863"
       id="rect181"
       height="9"
       width="9"
       y="136"
       x="269" /><rect
       style="fill:#ec4863"
       id="rect183"
       height="9"
       width="9"
       y="127"
       x="269" /><rect
       style="fill:#de445d"
       id="rect185"
       height="9"
       width="9"
       y="118"
       x="269" /><rect
       style="fill:#89223b"
       id="rect187"
       height="9"
       width="9"
       y="217"
       x="260" /><rect
       style="fill:#c93a56"
       id="rect189"
       height="9"
       width="9"
       y="208"
       x="260" /><rect
       style="fill:#ec4863"
       id="rect191"
       height="9"
       width="9"
       y="199"
       x="260" /><rect
       style="fill:#ec4863"
       id="rect193"
       height="9"
       width="9"
       y="190"
       x="260" /><rect
       style="fill:#ec4863"
       id="rect195"
       height="9"
       width="9"
       y="181"
       x="260" /><rect
       style="fill:#ec4863"
       id="rect197"
       height="9"
       width="9"
       y="172"
       x="260" /><rect
       style="fill:#ec4863"
       id="rect199"
       height="9"
       width="9"
       y="163"
       x="260" /><rect
       style="fill:#ec4863"
       id="rect201"
       height="9"
       width="9"
       y="154"
       x="260" /><rect
       style="fill:#ec4863"
       id="rect203"
       height="9"
       width="9"
       y="145"
       x="260" /><rect
       style="fill:#ec4863"
       id="rect205"
       height="9"
       width="9"
       y="136"
       x="260" /><rect
       style="fill:#de445d"
       id="rect207"
       height="9"
       width="9"
       y="127"
       x="260" /><rect
       style="fill:#89223b"
       id="rect209"
       height="9"
       width="9"
       y="217"
       x="251" /><rect
       style="fill:#89223b"
       id="rect211"
       height="9"
       width="9"
       y="208"
       x="251" /><rect
       style="fill:#89223b"
       id="rect213"
       height="9"
       width="9"
       y="199"
       x="251" /><rect
       style="fill:#ec4863"
       id="rect215"
       height="9"
       width="9"
       y="190"
       x="251" /><rect
       style="fill:#ec4863"
       id="rect217"
       height="9"
       width="9"
       y="181"
       x="251" /><rect
       style="fill:#ec4863"
       id="rect219"
       height="9"
       width="9"
       y="172"
       x="251" /><rect
       style="fill:#ec4863"
       id="rect221"
       height="9"
       width="9"
       y="163"
       x="251" /><rect
       style="fill:#ec4863"
       id="rect223"
       height="9"
       width="9"
       y="154"
       x="251" /><rect
       style="fill:#ec4863"
       id="rect225"
       height="9"
       width="9"
       y="145"
       x="251" /><rect
       style="fill:#ec4863"
       id="rect227"
       height="9"
       width="9"
       y="136"
       x="251" /><rect
       style="fill:#a5304c"
       id="rect229"
       height="9"
       width="9"
       y="199"
       x="242" /><rect
       style="fill:#c93a56"
       id="rect231"
       height="9"
       width="9"
       y="190"
       x="242" /><rect
       style="fill:#ec4863"
       id="rect233"
       height="9"
       width="9"
       y="181"
       x="242" /><rect
       style="fill:#de445d"
       id="rect235"
       height="9"
       width="9"
       y="172"
       x="242" /><rect
       style="fill:#c93a56"
       id="rect237"
       height="9"
       width="9"
       y="163"
       x="242" /><rect
       style="fill:#ec4863"
       id="rect239"
       height="9"
       width="9"
       y="154"
       x="242" /><rect
       style="fill:#ec4863"
       id="rect241"
       height="9"
       width="9"
       y="145"
       x="242" /><rect
       style="fill:#ec4863"
       id="rect243"
       height="9"
       width="9"
       y="136"
       x="242" /><rect
       style="fill:#89223b"
       id="rect245"
       height="9"
       width="9"
       y="208"
       x="233" /><rect
       style="fill:#c93a56"
       id="rect247"
       height="9"
       width="9"
       y="199"
       x="233" /><rect
       style="fill:#ec4863"
       id="rect249"
       height="9"
       width="9"
       y="190"
       x="233" /><rect
       style="fill:#ec4863"
       id="rect251"
       height="9"
       width="9"
       y="181"
       x="233" /><rect
       style="fill:#89223b"
       id="rect253"
       height="9"
       width="9"
       y="172"
       x="233" /><rect
       style="fill:#ec4863"
       id="rect255"
       height="9"
       width="9"
       y="163"
       x="233" /><rect
       style="fill:#ec4863"
       id="rect257"
       height="9"
       width="9"
       y="154"
       x="233" /><rect
       style="fill:#ec4863"
       id="rect259"
       height="9"
       width="9"
       y="145"
       x="233" /><rect
       style="fill:#ec4863"
       id="rect261"
       height="9"
       width="9"
       y="136"
       x="233" /><rect
       style="fill:#ff733f"
       id="rect263"
       height="9"
       width="9"
       y="226"
       x="224" /><rect
       style="fill:#ffd285"
       id="rect265"
       height="9"
       width="9"
       y="217"
       x="224" /><rect
       style="fill:#ff733f"
       id="rect267"
       height="9"
       width="9"
       y="208"
       x="224" /><rect
       style="fill:#c93a56"
       id="rect269"
       height="9"
       width="9"
       y="199"
       x="224" /><rect
       style="fill:#ec4863"
       id="rect271"
       height="9"
       width="9"
       y="190"
       x="224" /><rect
       style="fill:#ec4863"
       id="rect273"
       height="9"
       width="9"
       y="181"
       x="224" /><rect
       style="fill:#a5304c"
       id="rect275"
       height="9"
       width="9"
       y="172"
       x="224" /><rect
       style="fill:#ec4863"
       id="rect277"
       height="9"
       width="9"
       y="163"
       x="224" /><rect
       style="fill:#ec4863"
       id="rect279"
       height="9"
       width="9"
       y="154"
       x="224" /><rect
       style="fill:#ec4863"
       id="rect281"
       height="9"
       width="9"
       y="145"
       x="224" /><rect
       style="fill:#de445d"
       id="rect283"
       height="9"
       width="9"
       y="136"
       x="224" /><rect
       style="fill:#ffd285"
       id="rect285"
       height="9"
       width="9"
       y="226"
       x="215" /><rect
       style="fill:#ffd285"
       id="rect287"
       height="9"
       width="9"
       y="217"
       x="215" /><rect
       style="fill:#ffd285"
       id="rect289"
       height="9"
       width="9"
       y="208"
       x="215" /><rect
       style="fill:#ff733f"
       id="rect291"
       height="9"
       width="9"
       y="199"
       x="215" /><rect
       style="fill:#ec4863"
       id="rect293"
       height="9"
       width="9"
       y="190"
       x="215" /><rect
       style="fill:#c93a56"
       id="rect295"
       height="9"
       width="9"
       y="172"
       x="215" /><rect
       style="fill:#ec4863"
       id="rect297"
       height="9"
       width="9"
       y="163"
       x="215" /><rect
       style="fill:#ec4863"
       id="rect299"
       height="9"
       width="9"
       y="154"
       x="215" /><rect
       style="fill:#de445d"
       id="rect301"
       height="9"
       width="9"
       y="145"
       x="215" /><rect
       style="fill:#ff733f"
       id="rect303"
       height="9"
       width="9"
       y="226"
       x="206" /><rect
       style="fill:#ffd285"
       id="rect305"
       height="9"
       width="9"
       y="217"
       x="206" /><rect
       style="fill:#ffd285"
       id="rect307"
       height="9"
       width="9"
       y="208"
       x="206" /><rect
       style="fill:#ff733f"
       id="rect309"
       height="9"
       width="9"
       y="199"
       x="206" /><rect
       style="fill:#ec4863"
       id="rect311"
       height="9"
       width="9"
       y="172"
       x="206" /><rect
       style="fill:#ec4863"
       id="rect313"
       height="9"
       width="9"
       y="163"
       x="206" /><rect
       style="fill:#de445d"
       id="rect315"
       height="9"
       width="9"
       y="154"
       x="206" /><rect
       style="fill:#ff733f"
       id="rect317"
       height="9"
       width="9"
       y="235"
       x="197" /><rect
       style="fill:#ffd285"
       id="rect319"
       height="9"
       width="9"
       y="226"
       x="197" /><rect
       style="fill:#ff733f"
       id="rect321"
       height="9"
       width="9"
       y="208"
       x="197" /><rect
       style="fill:#ffd285"
       id="rect323"
       height="9"
       width="9"
       y="235"
       x="188" /></g><g
     id="g325"
     transform="translate(-212.70984,-158.70984)"
     style="fill:#ffffff"><path
       style="fill:#ffffff"
       inkscape:connector-curvature="0"
       id="path327"
       d="m 377.1,260.5 h -10.4 c -10.6,-23 -18.5,-44.4 -23.9,-64.2 h 12.4 c 4.3,17.7 10,34.6 17.1,50.8 7,-16.1 12.7,-33.1 17.1,-50.8 H 401 c -5.4,19.8 -13.4,41.2 -23.9,64.2 z" /><path
       style="fill:#ffffff"
       inkscape:connector-curvature="0"
       id="path329"
       d="m 409.1,171 h 11.8 v 12.4 H 409.1 V 171 z m 0.1,89.5 v -64.2 h 11.5 v 64.2 h -11.5 z" /><path
       style="fill:#ffffff"
       inkscape:connector-curvature="0"
       id="path331"
       d="m 470.1,196.8 -2,10 c -3.7,-1.2 -7.9,-1.9 -12.6,-1.9 -3.2,0 -6.7,0.5 -10.5,1.6 v 54 H 433.5 V 199 c 7.5,-2.7 15.4,-4.1 23.7,-4.1 4.6,0 8.9,0.7 12.9,1.9 z" /><path
       style="fill:#ffffff"
       inkscape:connector-curvature="0"
       id="path333"
       d="m 487.7,235.4 c 0,1.6 0.1,2.9 0.2,4 0.1,1.1 0.3,2 0.6,2.8 0.2,0.8 0.5,1.5 0.9,2.1 0.3,0.6 0.7,1.2 1.2,1.8 0.9,1.2 2.1,2.4 3.6,3.6 1.5,1.3 3.4,1.9 5.5,1.9 3.5,0 7.7,-0.9 12.7,-2.8 l 2.2,9.5 c -4.7,2.3 -10,3.5 -16,3.5 -4.2,0 -7.8,-0.9 -10.6,-2.6 -2.9,-1.7 -5.2,-3.7 -6.8,-5.8 -1.6,-2.1 -2.9,-4.4 -3.7,-7 -0.8,-2.6 -1.2,-6.2 -1.2,-10.7 v -57.3 l 11.5,-2 -0.1,59 z" /><path
       style="fill:#ffffff"
       inkscape:connector-curvature="0"
       id="path335"
       d="m 564.2,204.7 c -2.1,2.8 -4.4,5.5 -6.9,8 -2.4,2.5 -5,4.9 -7.7,7 -2.7,2.2 -5.5,4.1 -8.3,5.6 8.5,3.1 15.5,7.7 21,13.8 5.5,6.1 9.9,13.3 13.3,21.5 h -12.1 c -3.1,-6.9 -7.1,-12.9 -12,-17.8 -4.9,-5 -10.8,-8.7 -17.7,-11.2 v 29 h -11.5 v -93.9 l 11.5,-2 v 54.6 c 4.5,-2.5 8.8,-5.8 12.9,-9.9 4.1,-4.1 7.7,-8.6 10.8,-13.3 h 12.4 c -1.7,3 -3.6,5.8 -5.7,8.6 z" /><path
       style="fill:#ffffff"
       inkscape:connector-curvature="0"
       id="path337"
       d="m 580,171 h 11.7 v 12.4 H 580 V 171 z m 0.1,89.5 v -64.2 h 11.5 v 64.2 h -11.5 z" /><path
       style="fill:#ffffff"
       inkscape:connector-curvature="0"
       id="path339"
       d="m 607.3,252.9 c -5.4,-6 -8.2,-14.1 -8.2,-24.3 0,-10 2.8,-18.1 8.4,-24.5 5.4,-6.1 12.4,-9.3 21.3,-9.5 4.2,-0.2 7.9,0.3 11.1,1.5 3.2,1.2 6.3,3.1 9.2,5.6 l -8.4,7.8 c -1.8,-1.6 -3.7,-2.8 -5.6,-3.6 -1.9,-0.9 -3.9,-1.2 -6.1,-1 -5.4,0.2 -9.8,2.2 -13,5.9 -3.5,4.1 -5.2,10 -5.2,17.8 0,14 5.7,21.7 17.2,23.1 2.3,0.2 4.5,-0.2 6.6,-1 2.1,-0.8 4.1,-2.1 6,-3.7 l 8.4,7.9 c -2.6,2.4 -5.4,4.1 -8.2,5.2 -2.8,1.1 -6.1,1.8 -9.7,1.9 h -0.5 -2 c -0.7,0 -1.3,0 -2,-0.1 -8.1,-0.8 -14.6,-3.8 -19.3,-9 z" /><path
       style="fill:#ffffff"
       inkscape:connector-curvature="0"
       id="path341"
       d="m 698.6,204.7 c -2.1,2.8 -4.4,5.5 -6.9,8 -2.4,2.5 -5,4.9 -7.7,7 -2.7,2.2 -5.5,4.1 -8.3,5.6 8.5,3.1 15.5,7.7 21,13.8 5.5,6.1 9.9,13.3 13.3,21.5 h -12.1 c -3.1,-6.9 -7.1,-12.9 -12,-17.8 -4.9,-5 -10.8,-8.7 -17.7,-11.2 v 29 h -11.5 v -93.9 l 11.5,-2 v 54.6 c 4.5,-2.5 8.8,-5.8 12.9,-9.9 4.1,-4.1 7.7,-8.6 10.8,-13.3 h 12.4 c -1.6,3 -3.5,5.8 -5.7,8.6 z" /><path
       style="fill:#ffffff"
       inkscape:connector-curvature="0"
       id="path343"
       d="m 499.3,195.6 c -4.3,0 -8.3,0.4 -13.3,1.1 v 10.5 c 5,-1.1 8.2,-1.6 11.4,-1.6 4.7,0 9.4,0.6 13.1,1.9 l 1.8,-10 c -3.9,-1.3 -8.4,-1.9 -13,-1.9 z" /></g><g
     id="art2"
     transform="translate(-212.70984,-158.70984)" /></svg>