<?xml version="1.0" encoding="UTF-8" standalone="no"?>
<!-- Created with Inkscape (http://www.inkscape.org/) -->

<svg
   xmlns:dc="http://purl.org/dc/elements/1.1/"
   xmlns:cc="http://creativecommons.org/ns#"
   xmlns:rdf="http://www.w3.org/1999/02/22-rdf-syntax-ns#"
   xmlns:svg="http://www.w3.org/2000/svg"
   xmlns="http://www.w3.org/2000/svg"
   xmlns:sodipodi="http://sodipodi.sourceforge.net/DTD/sodipodi-0.dtd"
   xmlns:inkscape="http://www.inkscape.org/namespaces/inkscape"
   width="123.4125"
   height="163.75787"
   id="svg3293"
   version="1.1"
   inkscape:version="0.48.5 r10040"
   sodipodi:docname="New document 5">
  <defs
     id="defs3295" />
  <sodipodi:namedview
     id="base"
     pagecolor="#ffffff"
     bordercolor="#666666"
     borderopacity="1.0"
     inkscape:pageopacity="0.0"
     inkscape:pageshadow="2"
     inkscape:zoom="0.35"
     inkscape:cx="168.13482"
     inkscape:cy="-18.121063"
     inkscape:document-units="px"
     inkscape:current-layer="layer1"
     showgrid="false"
     fit-margin-top="0"
     fit-margin-left="0"
     fit-margin-right="0"
     fit-margin-bottom="0"
     inkscape:window-width="534"
     inkscape:window-height="403"
     inkscape:window-x="-6"
     inkscape:window-y="604"
     inkscape:window-maximized="0" />
  <metadata
     id="metadata3298">
    <rdf:RDF>
      <cc:Work
         rdf:about="">
        <dc:format>image/svg+xml</dc:format>
        <dc:type
           rdf:resource="http://purl.org/dc/dcmitype/StillImage" />
        <dc:title></dc:title>
      </cc:Work>
    </rdf:RDF>
  </metadata>
  <g
     inkscape:label="Layer 1"
     inkscape:groupmode="layer"
     id="layer1"
     transform="translate(-206.86518,-350.48324)">
    <path
       d="m 227.07143,492.24112 c 0,0 -4.6,-4.5 -8.5,-1.3 -2.8,2.3 -5.6,4.8 -6.8,6.3 -1.5,2 -3.7,6.4 -4.4,8.7 -0.6,2 -0.5,8.3 -0.5,8.3 0,0 3.3,-4.4 4.5,-5.8 1.4,-1.6 4.3,-4.7 5.9,-6.1 0.8,-0.7 2.1,-1.7 3.5,-2.8 3.4,-2.7 8.5,1.6 8.5,1.6 l -2.2,-8.9 z"
       id="path46-5"
       inkscape:connector-curvature="0"
       style="fill:#f5606b" />
    <path
       d="m 319.27143,471.64112 c 0,12.5 -3.9,25.7 -12.8,34 -8.3,7.7 -20.4,7.9 -34.1,8.4 -1.4,0 -2.3,-3.1 -3.7,-3.1 -1.2,0 -3.5,3.1 -4.9,3.1 -13.7,-0.4 -25,-0.9 -32.9,-7.2 -6.5,-5.1 -12.8,-7.9 -12.8,-35.2 0,-9.2 0.4,-22.1 4.3,-34.3 9.3,-29.7 20.4,-34.6 38.2,-34.6 17.5,0 34.6,2.1 47.4,23.5 7.7,12.8 11.3,35.9 11.3,45.4 z"
       id="path48-4"
       inkscape:connector-curvature="0"
       style="fill:#f5606b" />
    <path
       d="m 222.37143,481.14112 c 0,0 -2.8,-2 -6.5,-1 -3.2,0.9 -4.3,3.7 -5.2,4.8 -1.2,1.5 -2.9,4.9 -3.4,6.7 -0.4,1.6 -0.4,6.4 -0.4,6.4 0,0 2.5,-3.4 3.5,-4.5 1.1,-1.2 3.3,-3.6 4.5,-4.7 0.6,-0.5 1.6,-1.3 2.7,-2.2 2.6,-2 6.5,1.2 6.5,1.2 l -1.7,-6.7 z"
       id="path50-0"
       inkscape:connector-curvature="0"
       style="fill:#f5606b" />
    <path
       d="m 220.67143,472.14112 c 0,0 -2,-1.5 -4.6,-0.8 -2.3,0.6 -3.1,2.5 -3.7,3.4 -0.8,1 -2.1,3.4 -2.4,4.7 -0.3,1.1 -0.3,4.5 -0.3,4.5 0,0 1.8,-2.4 2.5,-3.1 0.8,-0.9 2.4,-2.5 3.2,-3.3 0.4,-0.4 1.1,-0.9 1.9,-1.5 1.9,-1.4 4.6,0.9 4.6,0.9 l -1.2,-4.8 z"
       id="path52-9"
       inkscape:connector-curvature="0"
       style="fill:#f5606b" />
    <path
       d="m 310.07143,489.54112 c 0,0 4.6,-4.5 8.5,-1.3 2.8,2.3 5.6,4.8 6.8,6.3 1.5,2 3.7,6.4 4.4,8.7 0.6,2 0.5,8.3 0.5,8.3 0,0 -3.3,-4.4 -4.5,-5.8 -1.4,-1.6 -4.3,-4.7 -5.9,-6.1 -0.8,-0.7 -2.1,-1.7 -3.5,-2.8 -3.4,-2.7 -8.5,1.6 -8.5,1.6 l 2.2,-8.9 z"
       id="path54-9"
       inkscape:connector-curvature="0"
       style="fill:#f5606b" />
    <path
       d="m 314.77143,478.44112 c 0,0 2.8,-2 6.5,-1 3.2,0.9 4.3,3.7 5.2,4.8 1.2,1.5 2.9,4.9 3.4,6.7 0.4,1.6 0.4,6.4 0.4,6.4 0,0 -2.5,-3.4 -3.5,-4.5 -1.1,-1.2 -3.3,-3.6 -4.5,-4.7 -0.6,-0.5 -1.6,-1.3 -2.7,-2.2 -2.6,-2 -6.5,1.2 -6.5,1.2 l 1.7,-6.7 z"
       id="path56-9"
       inkscape:connector-curvature="0"
       style="fill:#f5606b" />
    <path
       d="m 316.47143,469.44112 c 0,0 2,-1.5 4.6,-0.8 2.3,0.6 3.1,2.5 3.7,3.4 0.8,1 2.1,3.4 2.4,4.7 0.3,1.1 0.3,4.5 0.3,4.5 0,0 -1.8,-2.4 -2.5,-3.1 -0.8,-0.9 -2.4,-2.5 -3.2,-3.3 -0.4,-0.4 -1.1,-0.9 -1.9,-1.5 -1.9,-1.4 -4.6,0.9 -4.6,0.9 l 1.2,-4.8 z"
       id="path58-9"
       inkscape:connector-curvature="0"
       style="fill:#f5606b" />
    <path
       d="m 319.27143,471.64112 c 0,12.5 -3.9,25.7 -12.8,34 -8.3,7.7 -20.4,7.9 -34.1,8.4 -1.4,0 -2.3,-3.1 -3.7,-3.1 -1.2,0 -3.5,3.1 -4.9,3.1 -13.7,-0.4 -25,-0.9 -32.9,-7.2 -6.5,-5.1 -12.8,-7.9 -12.8,-35.2 0,-9.2 0.4,-22.1 4.3,-34.3 9.3,-29.7 20.4,-34.6 38.2,-34.6 17.5,0 34.6,2.1 47.4,23.5 7.7,12.8 11.3,35.9 11.3,45.4 z"
       id="path60-2"
       inkscape:connector-curvature="0"
       style="fill:#f5606b" />
    <path
       d="m 319.87143,499.54112 c 1.6,1.4 4.5,4.5 5.9,6.1 1.2,1.4 4.5,5.8 4.5,5.8 0,0 0,-6.3 -0.5,-8.3 -0.6,-2.3 -2.8,-6.7 -4.4,-8.7 -1.2,-1.5 -4,-4 -6.8,-6.3 -0.5,-0.4 -1,-0.7 -1.5,-0.9 1.3,-4.7 2,-9.6 2.1,-14.4 0.3,0.1 0.5,0.2 0.8,0.4 0.8,0.6 1.5,1.1 1.9,1.5 0.9,0.8 2.5,2.4 3.2,3.3 0.7,0.7 2.5,3.1 2.5,3.1 0,0 0,-3.4 -0.3,-4.5 -0.4,-1.2 -1.6,-3.6 -2.4,-4.7 -0.7,-0.8 -1.4,-2.7 -3.7,-3.4 -0.7,-0.2 -1.4,-0.2 -2,-0.2 -0.6,-10.8 -4.2,-30.7 -11.2,-42.3 -8.8,-14.6 -29.9,-20.2 -41.4,-22.3 l 28.3,107.9 c 4.4,-1.2 8.3,-3 11.6,-6.1 3,-2.8 5.4,-6.1 7.3,-9.8 0.9,0 1.9,0.2 2.7,0.9 1.4,1.2 2.7,2.3 3.4,2.9 z"
       id="path62-4"
       inkscape:connector-curvature="0"
       style="fill:#ff646f" />
    <path
       d="m 296.97143,463.14112 c 0,0 -0.6,3.5 -3.3,5.8 -3.2,2.8 -9,4.4 -14.1,5.3 -3.5,0.6 -17.6,4.8 -20.3,4.5 -5.9,-0.7 -12.6,-3.8 -16.2,-7.8 -3,-3.4 -3.3,-7.8 -3.3,-7.8 0,0 12.1,1.4 27.3,1.4 15.2,0 29.9,-1.4 29.9,-1.4 z"
       id="path64-3"
       inkscape:connector-curvature="0"
       style="fill:#333333" />
    <path
       d="m 244.17143,464.64112 c 0,0 0.5,4.1 1.7,9.7 2.2,10 9.9,9.9 9.9,9.9 0,0 -2.3,-4 -2.2,-6.6 0.2,-6 0.2,-4.3 1.4,-12.3 l -10.8,-0.7 z"
       id="path66-2"
       inkscape:connector-curvature="0"
       style="fill:#ffffff" />
    <path
       d="m 290.17143,464.64112 c 0,0 -0.4,3.7 -1.5,8.8 -2,9 -9,8.9 -9,8.9 0,0 2.1,-3.6 2,-6 -0.2,-5.4 -0.2,-3.9 -1.3,-11.1 l 9.8,-0.6 z"
       id="path68-4"
       inkscape:connector-curvature="0"
       style="fill:#ffffff" />
    <path
       d="m 284.97143,419.24112 c 0.1,1.1 -1.3,2.6 -3.3,6 -2.8,4.7 -9.1,8.8 -18.3,9.2 -9.2,0.4 -16.4,-3.4 -19.7,-7.4 -3.3,-3.9 -3.8,-4.8 -3.8,-5.8 -0.1,-2.2 1.9,-3.2 4.9,-7.9 2.8,-4.5 7.6,-10.2 15.7,-10.5 8.4,-0.4 14.2,3.3 19.8,9.8 4.1,4.6 4.6,4.7 4.7,6.6 z"
       id="path70-2"
       inkscape:connector-curvature="0"
       style="fill:#ffffff" />
    <path
       d="m 263.47143,418.44112 c 0,4.3 -3.5,7.8 -7.8,7.8 -4.3,0 -7.8,-3.5 -7.8,-7.8 0,-4.3 3.5,-7.8 7.8,-7.8 4.3,0 7.8,3.5 7.8,7.8 z"
       id="path72-6"
       inkscape:connector-curvature="0"
       style="fill:#303030" />
    <circle
       cx="1051.1"
       cy="307.70001"
       r="3.5"
       id="circle74-0"
       d="m 1054.6,307.70001 c 0,1.933 -1.567,3.5 -3.5,3.5 -1.933,0 -3.5,-1.567 -3.5,-3.5 0,-1.93299 1.567,-3.5 3.5,-3.5 1.933,0 3.5,1.56701 3.5,3.5 z"
       sodipodi:cx="1051.1"
       sodipodi:cy="307.70001"
       sodipodi:rx="3.5"
       sodipodi:ry="3.5"
       style="fill:#ffffff"
       transform="translate(-799.72862,110.04112)" />
    <path
       d="m 317.17143,407.54112 c -0.1,-1 -1,-1.7 -2,-1.6 l -22.2,2.4 c 0.2,-9.4 0.9,-52.3 -4.8,-55.8 -14.2,-8.7 -65.4,13 -65.4,13 l 4.9,49.9 -18.8,2 c -1,0.1 -1.7,1 -1.6,2 0.1,0.9 0.9,2.5 1.8,2.5 0.1,0 3.5,0 3.6,0 l 102.9,-11.5 c 1,-0.1 1.8,-1.9 1.6,-2.9 z"
       id="path76-4"
       inkscape:connector-curvature="0"
       style="fill:#5e5e5e" />
    <path
       d="m 317.17143,407.54112 c -0.1,-1 -1,-1.7 -2,-1.6 l -22.2,2.4 c 0.2,-9.4 0.9,-52.3 -4.8,-55.8 -5.8,-3.5 -17.6,-2 -29.6,0.9 l 26.7,60.4 30.3,-3.4 c 1,-0.1 1.8,-1.9 1.6,-2.9 z"
       id="path78-8"
       inkscape:connector-curvature="0"
       style="fill:#636363" />
  </g>
</svg>
